<?xml version="1.0" encoding="utf-8"?>
<!-- Generator: Adobe Illustrator 23.0.2, SVG Export Plug-In . SVG Version: 6.00 Build 0)  -->
<svg version="1.1" id="Layer_1" xmlns="http://www.w3.org/2000/svg" xmlns:xlink="http://www.w3.org/1999/xlink" x="0px" y="0px"
	 width="300px" height="250px" viewBox="0 0 300 250" style="enable-background:new 0 0 300 250;" xml:space="preserve">
<style type="text/css">
	.st0{fill:none;stroke:#000000;stroke-width:2;stroke-linecap:round;stroke-miterlimit:10;}
	.st1{fill:#51BA64;}
	.st2{fill:none;stroke:#51BA64;stroke-width:4;stroke-linecap:round;stroke-miterlimit:10;}
</style>
<g>
	<path class="st0" d="M137.1,95.2v29.7c0,4.4-3.5,7.9-7.9,7.9H91.6"/>
	<path class="st0" d="M39,157.3v-16.6c0-4.4,3.5-7.9,7.9-7.9h47.5"/>
	<path class="st0" d="M163.2,95.2v29.7c0,4.4,3.5,7.9,7.9,7.9h37.6"/>
	<path class="st0" d="M261.4,157.3v-16.6c0-4.4-3.5-7.9-7.9-7.9H206"/>
	<line class="st0" x1="150.1" y1="95.2" x2="150.1" y2="157.2"/>
	<path class="st0" d="M90,34.8v13.3c0,4.4,3.5,7.9,7.9,7.9h19.2"/>
	<path class="st0" d="M94.8,30.1c0,2.6-2.1,4.7-4.7,4.7c-2.6,0-4.7-2.1-4.7-4.7c0-2.6,2.1-4.7,4.7-4.7
		C92.6,25.4,94.8,27.5,94.8,30.1z"/>
	<path class="st0" d="M90,100.4V87.1c0-4.4,3.5-7.9,7.9-7.9h19.2"/>
	<path class="st0" d="M94.8,105.1c0-2.6-2.1-4.7-4.7-4.7c-2.6,0-4.7,2.1-4.7,4.7c0,2.6,2.1,4.7,4.7,4.7
		C92.6,109.8,94.8,107.7,94.8,105.1z"/>
	<line class="st0" x1="95.3" y1="68" x2="117.1" y2="68"/>
	<path class="st0" d="M90,87.3"/>
	<path class="st0" d="M94.8,68c0-2.6-2.1-4.7-4.7-4.7c-2.6,0-4.7,2.1-4.7,4.7c0,2.6,2.1,4.7,4.7,4.7C92.6,72.8,94.8,70.7,94.8,68z"
		/>
	<path class="st0" d="M210.4,34.8v13.3c0,4.4-3.5,7.9-7.9,7.9h-19.2"/>
	<path class="st0" d="M205.7,30.1c0,2.6,2.1,4.7,4.7,4.7c2.6,0,4.7-2.1,4.7-4.7c0-2.6-2.1-4.7-4.7-4.7
		C207.8,25.4,205.7,27.5,205.7,30.1z"/>
	<path class="st0" d="M210.4,100.4V87.1c0-4.4-3.5-7.9-7.9-7.9h-19.2"/>
	<path class="st0" d="M205.7,105.1c0-2.6,2.1-4.7,4.7-4.7c2.6,0,4.7,2.1,4.7,4.7c0,2.6-2.1,4.7-4.7,4.7
		C207.8,109.8,205.7,107.7,205.7,105.1z"/>
	<line class="st0" x1="205.1" y1="68" x2="183.3" y2="68"/>
	<path class="st0" d="M210.4,87.3"/>
	<path class="st0" d="M205.7,68c0-2.6,2.1-4.7,4.7-4.7c2.6,0,4.7,2.1,4.7,4.7c0,2.6-2.1,4.7-4.7,4.7C207.8,72.8,205.7,70.7,205.7,68
		z"/>
	<path class="st0" d="M157.6,217.6c-2.7,3.2-5.8,6.1-9.1,8.6c-0.2,0.2-0.5,0.3-0.8,0.3s-0.6-0.1-0.8-0.3c-7.1-5.4-13-12.5-17-20.5
		c-4-8-6.1-16.9-6.1-25.9v-2.4c0-0.4,0.1-0.7,0.4-0.9s0.6-0.4,0.9-0.4h0l22.5,0l22.5,0c0,0,0,0,0,0c0.4,0,0.7,0.1,0.9,0.4
		s0.4,0.6,0.4,0.9v2.4c0,2.1-0.1,4.1-0.3,6.2"/>
	<g>
		<g id="_x34__10_">
			<g>
				<path class="st0" d="M174.7,190.5h-22.8c-1.5,0-2.7,1.2-2.7,2.7v16.2c0,1.5,1.2,2.7,2.7,2.7h22.8c1.5,0,2.7-1.2,2.7-2.7v-16.2
					C177.4,191.7,176.2,190.5,174.7,190.5z"/>
			</g>
		</g>
	</g>
	<line class="st0" x1="149.2" y1="195.6" x2="176.9" y2="195.6"/>
	<path class="st0" d="M281.7,193.5c-0.6-10.6-9.3-19-19.8-19c-6.4,0-12.5,3.1-16.4,8.2c-0.1,0-0.2-0.1-0.3-0.1
		c-0.2-0.1-0.5-0.2-0.7-0.3c-0.1-0.1-0.3-0.1-0.4-0.1c-0.2-0.1-0.5-0.2-0.7-0.2c-0.1,0-0.3-0.1-0.4-0.1c-0.3-0.1-0.5-0.1-0.8-0.1
		c-0.1,0-0.2,0-0.4-0.1c-0.4,0-0.8-0.1-1.2-0.1c-5.8,0-10.6,4.7-10.6,10.6c0,0.1,0,0.3,0,0.4v0c-4.9,2.7-8.2,8.2-8.2,13.8
		c0,8.3,6.8,15.1,15.1,15.1h28.8c0.1,0,0.2,0,0.4,0l0.1,0l0.2,0c0.1,0,0.2,0,0.4,0h11.5c7.8,0,14.1-6.3,14.1-14.1
		C292.3,200.9,287.8,195.1,281.7,193.5z M250.8,189.6c-0.8-3.1-2.9-5.6-5.5-7 M281.8,193.5c-1.2-0.2-2.9-0.5-4.8-0.5"/>
	<path class="st0" d="M259.8,159.1c0-0.9,0.7-1.6,1.6-1.6c0.9,0,1.6,0.7,1.6,1.6c0,0.9-0.7,1.6-1.6,1.6
		C260.5,160.7,259.8,160,259.8,159.1z"/>
	<path class="st0" d="M148.5,159.1c0-0.9,0.7-1.6,1.6-1.6c0.9,0,1.6,0.7,1.6,1.6c0,0.9-0.7,1.6-1.6,1.6
		C149.2,160.7,148.5,160,148.5,159.1z"/>
	<path class="st0" d="M37.4,159.1c0-0.9,0.7-1.6,1.6-1.6c0.9,0,1.6,0.7,1.6,1.6c0,0.9-0.7,1.6-1.6,1.6
		C38.1,160.7,37.4,160,37.4,159.1z"/>
	<g>
		<path class="st0" d="M41.5,211.5l-25.1-12.8l-3.5,6.9l37.8,19.3l6.5-12.8C52.2,214.1,46.5,214,41.5,211.5z"/>
		<path class="st0" d="M57.2,212.2l-4.2,8.2l4.3,2.2l6.1-11.9l-1.7-0.9C60.3,210.8,58.8,211.6,57.2,212.2z"/>
		<path class="st0" d="M41.5,211.5l-29.2-15l9.6-18.8l46.8,24C63.4,212.1,51.2,216.5,41.5,211.5"/>
		<path class="st0" d="M40.9,193.7c2.1,1.1,2.9,3.6,1.8,5.6c-1.1,2.1-3.6,2.9-5.6,1.8c-2.1-1.1-2.9-3.6-1.8-5.6
			C36.3,193.4,38.9,192.6,40.9,193.7z"/>
	</g>
	<line class="st0" x1="39" y1="170.5" x2="39" y2="197.4"/>
</g>
<g>
	<path class="st1" d="M176.5,86.8c0,4.4-3.5,7.9-7.9,7.9H131c-4.4,0-7.9-3.5-7.9-7.9V49.2c0-4.4,3.5-7.9,7.9-7.9h37.6
		c4.4,0,7.9,3.5,7.9,7.9V86.8z"/>
	<path class="st2" d="M166,40.6V24.4c0-9.2-7.5-16.7-16.7-16.7c-9.2,0-16.7,7.5-16.7,16.7"/>
	<path d="M150.6,62.1c-1.5-0.3-3.1,0.6-3.8,2c-0.7,1.5-0.2,3.2,1.1,4.2c0.3,0.2,0.3,0.4,0.3,0.7c0,1.5,0,3,0,4.5l0,0
		c0,1.2,1.3,2.2,2.6,1.5c0.6-0.3,0.9-0.9,0.8-1.5l0,0c0-1.5,0-3,0-4.5c0-0.3,0.1-0.5,0.4-0.7c0.9-0.7,1.4-1.6,1.4-2.8
		C153.5,63.8,152.3,62.4,150.6,62.1z"/>
</g>
<path d="M152.3,192.3c-0.4,0-0.8,0.3-0.8,0.8c0,0.4,0.3,0.8,0.8,0.8c0.4,0,0.8-0.3,0.8-0.8C153.1,192.6,152.7,192.3,152.3,192.3z"/>
<path d="M154.4,192.3c-0.4,0-0.8,0.3-0.8,0.8c0,0.4,0.3,0.8,0.8,0.8c0.4,0,0.8-0.3,0.8-0.8C155.2,192.6,154.9,192.3,154.4,192.3z"/>
<path d="M156.6,192.3c-0.4,0-0.8,0.3-0.8,0.8c0,0.4,0.3,0.8,0.8,0.8c0.4,0,0.8-0.3,0.8-0.8C157.3,192.6,157,192.3,156.6,192.3z"/>
</svg>
